<svg id="TARGETS" xmlns="http://www.w3.org/2000/svg" viewBox="0 0 94.85 94.85" width="94.85" height="94.85"><defs><style>.cls-1{fill:#26bde2}.cls-2{fill:#fff}</style></defs><title>Goal_6_RGB_NG</title><path class="cls-1" d="M0 0h94.85v94.85H0z"/><path class="cls-2" d="M85.57 68.69a.32.32 0 0 0-.14 0l-.17.12-.19.13-.21.15-.14.1c-3.07 2-10.51 5.31-17.88-.28l-.08-.07-.12-.11h-.06a8 8 0 0 1-2.66-4c-.49-2.38 4-4.17 4-4.17 10.83-3.94 15.8-5.27 7.27-10.75-3.94-2.53-4.25-3-8.51-5.78-3.57-2.32 1.84-1.78 5.45-4.21a2.27 2.27 0 0 0 .95-2.95L85.28 55h2.52l-.72-1.21-20.83-31-7.08 10.13-18.32-25.2-33.8 47.34h2.66l21.73-30.44 15.38 5.85 4.78-4.28 7.6 10.47 7-10 5.84 8.7c.41.77 1.57 3.76-4 4.95-9.5 2-5.16 5-1.78 7.08 8.39 5.19 8.44 6.5 2 8.56a48 48 0 0 0-4.62 1.77c-3.5 1.44-5.28 4-5.26 6.37a11.23 11.23 0 0 0 .34 2.07c.13.48 2.19 7.66-6.27 5.41a16.11 16.11 0 0 1-4.73-2.5l-.16-.12a.58.58 0 0 0-.14 0 .32.32 0 0 0-.18.06.15.15 0 0 0-.09 0l-.2.15c-2.64 1.87-10.8 6.57-18.1-.25l-.12-.11a.49.49 0 0 0-.31-.13.51.51 0 0 0-.32.13l-.11.11c-7.43 6.93-15.71 2-18.21.17l-.17-.12a.5.5 0 0 0-.13 0 .4.4 0 0 0-.39.39v4.08a.36.36 0 0 0 .11.26l.24.22c8.2 7.34 16.75 1.09 18.56-.45l.18-.17a.57.57 0 0 1 .18 0 .47.47 0 0 1 .17 0l.18.17c1.8 1.5 10.33 7.78 18.62.39 7.79 7 15.84 1.78 18.24-.09.48.32.79.49.79.49A24.37 24.37 0 0 0 73.67 77 12.07 12.07 0 0 0 83 75.54a18.48 18.48 0 0 0 2.6-1.69l.25-.23a.39.39 0 0 0 .11-.27v-4.26a.4.4 0 0 0-.39-.4z"/><path class="cls-2" d="M35.84 61.63h1.38a.1.1 0 0 0 .1-.1v-3.07h3.33a.22.22 0 0 0 .22-.23.19.19 0 0 0 0-.08L36.82 45a.25.25 0 0 0-.21-.13.22.22 0 0 0-.18.1l-.06.09-4.08 13.1a.28.28 0 0 0 0 .13.23.23 0 0 0 .21.22h3.3v3.07a.11.11 0 0 0 .04.05zM25.35 61.63h1.38a.11.11 0 0 0 .11-.1v-3.07h3.32a.23.23 0 0 0 .23-.23.19.19 0 0 0 0-.08L26.33 45a.22.22 0 0 0-.2-.13.23.23 0 0 0-.19.1l-.05.09-4.08 13.1a.2.2 0 0 0 0 .13.22.22 0 0 0 .21.22h3.3v3.07a.1.1 0 0 0 .03.05zM46.24 61.63h1.38a.11.11 0 0 0 .11-.1v-3.07h3.32a.23.23 0 0 0 .23-.23.19.19 0 0 0 0-.08L47.22 45a.22.22 0 0 0-.2-.13.23.23 0 0 0-.19.1v.09l-4.08 13.1a.2.2 0 0 0 0 .13.22.22 0 0 0 .21.22h3.3v3.07a.1.1 0 0 0-.02.05zM25.28 80.07a1 1 0 1 0 1 1 1 1 0 0 0-1-1zM29.84 79.29a.78.78 0 0 0-.78-.79.79.79 0 1 0 0 1.57.78.78 0 0 0 .78-.78zM21.38 83.08c-.3-.41-2.25-2.9-5-2.9-2.37 0-4.91 2.16-4.91 2.16a4 4 0 0 0-2.91-2.14H8.5s-.08 0-.07.08a.15.15 0 0 0 0 .07 4.83 4.83 0 0 1 0 5.6.08.08 0 0 0 .07.08 4.05 4.05 0 0 0 2.92-2.15s2.54 2.16 4.91 2.16c2.74 0 4.69-2.49 5-2.9v-.06zm-3.49.34a.8.8 0 1 1 .8-.8.8.8 0 0 1-.8.8zM42 86.82a6 6 0 0 1-.9-2.82 5.93 5.93 0 0 1 .9-2.77.16.16 0 0 0 0-.08s0-.07-.07-.07h-.03a4 4 0 0 0-2.9 2.14s-2.54-2.15-4.92-2.15c-2.73 0-4.68 2.48-5 2.89a.05.05 0 0 0 0 .06c.3.4 2.25 2.89 5 2.89C36.45 87 39 84.82 39 84.82A4 4 0 0 0 41.91 87a.07.07 0 0 0 .07-.07zm-9.44-2.49a.8.8 0 1 1 .8-.79.79.79 0 0 1-.81.79zM86 80v-.32a.39.39 0 0 0-.39-.34.46.46 0 0 0-.2.05l-.21.16c-2.69 1.9-11 6.69-18.44-.26l-.12-.12a.46.46 0 0 0-.64 0l-.12.12c-7.56 7.06-16 2-18.55.17l-.17-.12a.5.5 0 0 0-.13 0 .4.4 0 0 0-.4.4v3.16a.37.37 0 0 0 .11.27l.24.22a15.42 15.42 0 0 0 19 .6l.18-.16a.39.39 0 0 1 .18 0 .33.33 0 0 1 .17 0l.19.16c1.85 1.55 11.11 6.64 19.21-.8A.44.44 0 0 0 86 83z"/></svg>